<svg width="160" height="60" viewBox="0 0 305 53" fill="none" xmlns="http://www.w3.org/2000/svg">
<path d="M6 19.6C6 20.528 6.304 21.344 6.912 22.048C7.52 22.72 8.272 23.312 9.168 23.824C10.064 24.304 11.28 24.864 12.816 25.504C14.576 26.272 15.952 26.944 16.944 27.52C17.936 28.064 18.784 28.784 19.488 29.68C20.224 30.544 20.592 31.584 20.592 32.8C20.592 35.264 19.696 37.216 17.904 38.656C16.144 40.064 13.84 40.768 10.992 40.768C9.456 40.768 7.968 40.56 6.528 40.144C5.088 39.76 3.84 39.216 2.784 38.512L1.44 38.992L0.96 32.8C1.344 33.76 1.968 34.816 2.832 35.968C3.728 37.088 4.864 38.08 6.24 38.944C7.648 39.808 9.232 40.24 10.992 40.24C12.624 40.24 13.984 39.856 15.072 39.088C16.16 38.288 16.704 37.248 16.704 35.968C16.704 35.232 16.432 34.576 15.888 34C15.344 33.424 14.672 32.928 13.872 32.512C13.072 32.096 11.936 31.568 10.464 30.928C8.576 30.128 7.024 29.392 5.808 28.72C4.592 28.048 3.552 27.184 2.688 26.128C1.856 25.04 1.44 23.744 1.44 22.24C1.44 20.672 1.888 19.36 2.784 18.304C3.712 17.248 4.864 16.48 6.24 16C7.648 15.488 9.088 15.232 10.56 15.232C11.776 15.232 12.944 15.408 14.064 15.76C15.216 16.08 16.176 16.48 16.944 16.96L17.856 16.528L18.288 21.808C17.712 20.144 16.784 18.704 15.504 17.488C14.256 16.272 12.608 15.664 10.56 15.664C9.28 15.664 8.192 15.984 7.296 16.624C6.432 17.232 6 18.224 6 19.6ZM35.1945 40.336C37.5305 40.336 39.2105 39.2 40.2345 36.928C41.2905 34.624 41.8185 31.648 41.8185 28C41.8185 24.384 41.2905 21.424 40.2345 19.12C39.2105 16.816 37.5305 15.664 35.1945 15.664C32.8585 15.664 31.1625 16.816 30.1065 19.12C29.0825 21.424 28.5705 24.384 28.5705 28C28.5705 31.648 29.0825 34.624 30.1065 36.928C31.1625 39.2 32.8585 40.336 35.1945 40.336ZM22.4265 28C22.4265 25.696 23.0025 23.568 24.1545 21.616C25.3065 19.664 26.8585 18.112 28.8105 16.96C30.7625 15.808 32.8905 15.232 35.1945 15.232C37.4985 15.232 39.6265 15.808 41.5785 16.96C43.5305 18.112 45.0825 19.664 46.2345 21.616C47.3865 23.568 47.9625 25.696 47.9625 28C47.9625 30.304 47.3865 32.432 46.2345 34.384C45.0825 36.336 43.5305 37.888 41.5785 39.04C39.6265 40.192 37.4985 40.768 35.1945 40.768C32.8905 40.768 30.7625 40.192 28.8105 39.04C26.8585 37.888 25.3065 36.336 24.1545 34.384C23.0025 32.432 22.4265 30.304 22.4265 28ZM61.7445 39.136C62.6725 39.424 63.6005 39.568 64.5285 39.568C65.8405 39.568 67.1365 39.328 68.4165 38.848C69.6965 38.336 70.8485 37.664 71.8725 36.832C70.9445 38.08 69.6805 39.056 68.0805 39.76C66.4805 40.432 64.7685 40.768 62.9445 40.768C60.6405 40.768 58.5125 40.192 56.5605 39.04C54.6085 37.888 53.0565 36.336 51.9045 34.384C50.7525 32.432 50.1765 30.304 50.1765 28C50.1765 25.696 50.7525 23.568 51.9045 21.616C53.0565 19.664 54.6085 18.112 56.5605 16.96C58.5125 15.808 60.6405 15.232 62.9445 15.232C64.5125 15.232 66.0165 15.584 67.4565 16.288C68.8965 16.96 70.0645 17.936 70.9605 19.216L67.7445 20.56C67.5205 19.344 66.9605 18.24 66.0645 17.248C65.1685 16.224 64.1285 15.696 62.9445 15.664C60.8005 15.664 59.1525 16.848 58.0005 19.216C56.8805 21.584 56.3205 24.512 56.3205 28C56.3205 30.624 56.7365 32.976 57.5685 35.056C58.4005 37.104 59.7925 38.464 61.7445 39.136ZM80.6535 37.456C80.6535 38.032 80.7655 38.464 80.9895 38.752C81.2455 39.04 81.5335 39.296 81.8535 39.52C82.2055 39.744 82.4135 39.904 82.4775 40H72.8775C72.9415 39.904 73.1495 39.744 73.5015 39.52C73.8535 39.296 74.1415 39.04 74.3655 38.752C74.5895 38.432 74.7015 38 74.7015 37.456V20.368C74.7015 19.792 74.5735 19.36 74.3175 19.072C74.0935 18.784 73.8055 18.528 73.4535 18.304C73.1335 18.08 72.9415 17.92 72.8775 17.824L80.6535 16V37.456ZM74.0295 10.192C74.0295 9.2 74.3815 8.352 75.0855 7.648C75.8215 6.912 76.6855 6.544 77.6775 6.544C78.6695 6.544 79.5175 6.912 80.2215 7.648C80.9575 8.352 81.3255 9.2 81.3255 10.192C81.3255 11.184 80.9735 12.048 80.2695 12.784C79.5655 13.488 78.7015 13.84 77.6775 13.84C76.6855 13.84 75.8215 13.488 75.0855 12.784C74.3815 12.048 74.0295 11.184 74.0295 10.192ZM91.0103 32.56C91.0103 34.448 91.3303 35.872 91.9703 36.832C92.6423 37.76 93.5063 38.224 94.5623 38.224C95.2663 38.224 95.9863 38.016 96.7223 37.6C97.4583 37.184 98.1463 36.608 98.7863 35.872V21.76C98.5303 22.24 98.1143 22.704 97.5383 23.152C96.9943 23.568 96.0343 24.24 94.6583 25.168C93.4743 25.968 92.5623 27.056 91.9223 28.432C91.3143 29.776 91.0103 31.152 91.0103 32.56ZM84.8663 33.424C84.8663 31.76 85.3143 30.352 86.2103 29.2C87.1063 28.016 88.1303 27.104 89.2823 26.464C90.4343 25.824 91.9223 25.12 93.7463 24.352C95.0903 23.776 96.0663 23.328 96.6743 23.008C97.3143 22.688 97.8263 22.304 98.2103 21.856C98.5943 21.408 98.7863 20.848 98.7863 20.176V19.984C98.7863 18.864 98.4983 17.872 97.9223 17.008C97.3783 16.112 96.4343 15.664 95.0903 15.664C93.7143 15.664 92.5463 16.24 91.5863 17.392C90.6583 18.512 90.0343 19.76 89.7143 21.136L86.4983 19.792C88.8663 16.752 91.7303 15.232 95.0903 15.232C97.9703 15.232 100.29 16.064 102.05 17.728C103.842 19.36 104.738 21.568 104.738 24.352V35.92C104.738 36.496 104.85 36.944 105.074 37.264C105.33 37.552 105.618 37.808 105.938 38.032C106.29 38.224 106.498 38.368 106.562 38.464L98.7863 40.336V36.448C98.0503 37.504 97.0103 38.496 95.6663 39.424C94.3223 40.32 92.9303 40.768 91.4903 40.768C90.2743 40.768 89.1543 40.448 88.1303 39.808C87.1063 39.168 86.3063 38.288 85.7303 37.168C85.1543 36.048 84.8663 34.8 84.8663 33.424ZM116.841 37.456C116.841 38.032 116.953 38.464 117.177 38.752C117.433 39.04 117.721 39.296 118.041 39.52C118.393 39.744 118.601 39.904 118.665 40H109.065C109.129 39.904 109.337 39.744 109.689 39.52C110.041 39.296 110.329 39.04 110.553 38.752C110.777 38.432 110.889 38 110.889 37.456V4.576C110.889 4 110.761 3.568 110.505 3.28C110.281 2.992 109.993 2.736 109.641 2.512C109.321 2.288 109.129 2.128 109.065 2.032L116.841 0.207997V37.456ZM144.146 40.336C146.482 40.336 148.162 39.2 149.186 36.928C150.242 34.624 150.77 31.648 150.77 28C150.77 25.28 150.45 23.12 149.81 21.52C149.17 19.888 148.098 18.688 146.594 17.92C145.922 17.536 145.186 17.344 144.386 17.344C143.522 17.344 142.626 17.616 141.698 18.16C140.802 18.672 139.954 19.472 139.154 20.56V36.976C140.242 39.216 141.906 40.336 144.146 40.336ZM139.154 0.207997V19.888C140.306 18.224 141.458 17.04 142.609 16.336C143.762 15.6 145.09 15.232 146.594 15.232C148.386 15.232 150.066 15.808 151.634 16.96C153.234 18.112 154.514 19.68 155.474 21.664C156.434 23.616 156.914 25.728 156.914 28C156.914 30.304 156.338 32.432 155.186 34.384C154.034 36.336 152.482 37.888 150.53 39.04C148.578 40.192 146.45 40.768 144.146 40.768C141.586 40.768 139.202 40.048 136.993 38.608L133.202 40.336V4.576C133.202 4 133.074 3.568 132.818 3.28C132.594 2.992 132.306 2.736 131.954 2.512C131.634 2.288 131.442 2.128 131.378 2.032L139.154 0.207997ZM194.453 35.728C194.453 36.912 194.741 37.84 195.317 38.512C195.925 39.152 196.757 39.472 197.813 39.472C198.677 39.472 199.541 39.296 200.405 38.944C198.613 40.16 196.629 40.768 194.453 40.768C192.789 40.768 191.381 40.24 190.229 39.184C189.077 38.128 188.501 36.832 188.501 35.296V19.36C190.261 17.888 192.197 17.152 194.309 17.152H194.453V35.728ZM166.613 16V33.904C166.613 35.216 167.077 36.304 168.005 37.168C168.965 38.032 170.117 38.464 171.461 38.464C172.357 38.464 173.253 38.256 174.149 37.84C175.045 37.392 175.877 36.736 176.645 35.872V19.888C176.645 19.344 176.533 18.928 176.309 18.64C176.085 18.32 175.797 18.048 175.445 17.824C175.093 17.6 174.885 17.44 174.821 17.344L182.597 16V26.608C183.237 25.008 183.765 23.776 184.181 22.912C184.597 22.016 185.157 21.104 185.861 20.176C186.597 19.216 187.477 18.4 188.501 17.728V13.696C188.501 13.12 188.373 12.688 188.117 12.4C187.893 12.08 187.605 11.808 187.253 11.584C186.933 11.36 186.741 11.2 186.677 11.104L194.453 9.28V16H198.101V16.432H194.309C191.365 16.432 189.061 17.312 187.397 19.072C185.733 20.832 184.341 23.232 183.221 26.272C182.421 28.416 181.509 30.208 180.485 31.648C179.493 33.088 178.213 34.736 176.645 36.592C175.493 38 174.213 39.056 172.805 39.76C171.397 40.432 169.973 40.768 168.533 40.768C167.125 40.768 165.813 40.448 164.597 39.808C163.413 39.168 162.453 38.256 161.717 37.072C161.013 35.888 160.661 34.528 160.661 32.992V19.888C160.661 19.344 160.549 18.928 160.325 18.64C160.101 18.32 159.813 18.048 159.461 17.824C159.109 17.6 158.901 17.44 158.837 17.344L166.613 16ZM176.645 37.696L177.173 37.024L177.653 36.496C178.805 35.152 179.749 34 180.485 33.04C181.221 32.048 181.925 30.88 182.597 29.536V35.968C182.597 36.512 182.709 36.944 182.933 37.264C183.157 37.552 183.445 37.808 183.797 38.032C184.149 38.256 184.357 38.416 184.421 38.512L176.645 40.336V37.696ZM207.402 35.776C207.402 36.96 207.69 37.872 208.266 38.512C208.874 39.152 209.706 39.472 210.762 39.472C211.626 39.472 212.49 39.296 213.354 38.944C211.562 40.16 209.594 40.768 207.45 40.768C205.786 40.768 204.362 40.256 203.178 39.232C202.026 38.208 201.45 36.896 201.45 35.296V16.432H198.714V16H201.45V13.696C201.45 13.12 201.322 12.688 201.066 12.4C200.842 12.112 200.554 11.856 200.202 11.632C199.882 11.408 199.69 11.248 199.626 11.152L207.402 9.328V16H211.05V16.432H207.402V35.776ZM243.859 37.456C243.859 38.032 243.971 38.464 244.195 38.752C244.451 39.04 244.739 39.296 245.059 39.52C245.411 39.744 245.619 39.904 245.683 40H236.083C236.147 39.904 236.355 39.744 236.707 39.52C237.059 39.296 237.347 39.04 237.571 38.752C237.795 38.432 237.907 38 237.907 37.456V32.416C238.611 31.264 239.171 30.24 239.587 29.344L240.355 27.712C241.059 26.208 241.667 24.976 242.179 24.016C242.691 23.056 243.251 22.16 243.859 21.328V37.456ZM212.083 28C212.083 25.696 212.547 23.568 213.475 21.616C214.435 19.664 215.747 18.112 217.411 16.96C219.075 15.808 220.947 15.232 223.027 15.232C224.851 15.232 226.531 15.728 228.067 16.72C229.603 17.712 230.819 19.072 231.715 20.8C232.611 22.528 233.059 24.48 233.059 26.656H218.275L218.227 28.192C218.227 31.488 218.739 34.224 219.763 36.4C220.819 38.544 222.627 39.616 225.187 39.616C227.875 39.616 230.307 38.688 232.483 36.832C234.691 34.944 236.499 32.64 237.907 29.92V20.368C237.907 19.792 237.779 19.36 237.523 19.072C237.299 18.784 237.011 18.528 236.659 18.304C236.339 18.08 236.147 17.92 236.083 17.824L243.859 16V19.456C244.979 18.048 246.147 16.992 247.363 16.288C248.579 15.584 249.747 15.232 250.867 15.232C251.827 15.264 252.691 15.52 253.459 16C254.259 16.48 254.867 17.136 255.283 17.968L251.635 20.272C251.315 19.44 250.835 18.768 250.195 18.256C249.587 17.744 248.899 17.488 248.131 17.488C246.659 17.488 245.203 18.4 243.763 20.224L243.379 20.704C242.739 21.536 242.147 22.448 241.603 23.44C241.091 24.432 240.467 25.712 239.731 27.28L238.915 29.008C235.139 36.848 230.307 40.768 224.419 40.768C222.115 40.768 220.019 40.208 218.131 39.088C216.243 37.936 214.755 36.384 213.667 34.432C212.611 32.48 212.083 30.336 212.083 28ZM227.395 26.176C227.395 22.592 227.107 19.952 226.531 18.256C225.955 16.56 224.787 15.712 223.027 15.712C221.491 15.712 220.339 16.672 219.571 18.592C218.835 20.48 218.403 23.008 218.275 26.176H227.395ZM276.706 37.456C276.706 38.032 276.818 38.464 277.042 38.752C277.298 39.04 277.586 39.296 277.906 39.52C278.258 39.744 278.466 39.904 278.53 40H268.978C269.042 39.904 269.25 39.744 269.602 39.52C269.954 39.296 270.242 39.04 270.466 38.752C270.69 38.432 270.802 38 270.802 37.456V2.512H267.394C266.05 2.512 264.882 2.88 263.89 3.616C262.93 4.32 262.45 5.28 262.45 6.496C262.45 7.104 262.562 7.696 262.786 8.272C262.882 8.56 263.09 9.024 263.41 9.664C263.762 10.272 263.938 10.848 263.938 11.392V15.52H267.586V16H263.938V37.456C263.938 38.032 264.05 38.464 264.274 38.752C264.53 39.04 264.818 39.296 265.138 39.52C265.49 39.744 265.698 39.904 265.762 40H256.21C256.274 39.904 256.482 39.744 256.834 39.52C257.186 39.296 257.474 39.04 257.698 38.752C257.922 38.432 258.034 38 258.034 37.456V16H255.298V15.52H258.034V11.392C258.034 9.76 258.434 8.24 259.234 6.832C260.034 5.392 261.154 4.24 262.594 3.376C264.034 2.48 265.634 2.032 267.394 2.032H276.706V37.456ZM304.883 16C304.819 16.096 304.691 16.208 304.499 16.336C304.307 16.464 304.179 16.544 304.115 16.576C303.635 16.832 303.219 17.104 302.867 17.392C302.515 17.68 302.227 18.064 302.003 18.544L290.771 43.984C289.715 46.352 288.675 48.112 287.651 49.264C286.659 50.416 285.491 51.184 284.147 51.568C282.835 51.984 281.043 52.192 278.771 52.192L279.683 48.544C280.163 48.544 280.883 48.784 281.843 49.264C282.995 49.84 283.907 50.128 284.579 50.128C285.475 50.128 286.387 49.664 287.315 48.736C288.243 47.84 289.203 46.256 290.195 43.984L291.683 40.768L282.179 18.544C281.955 18.096 281.667 17.744 281.315 17.488C280.995 17.2 280.563 16.896 280.019 16.576C279.923 16.512 279.763 16.432 279.539 16.336C279.347 16.208 279.235 16.096 279.203 16H288.803C288.707 16.128 288.579 16.272 288.419 16.432C288.259 16.592 288.115 16.768 287.987 16.96C287.891 17.12 287.843 17.328 287.843 17.584C287.843 17.904 287.923 18.224 288.083 18.544L294.755 33.808L301.427 18.544C301.587 18.224 301.667 17.904 301.667 17.584C301.667 17.328 301.603 17.104 301.475 16.912C301.379 16.72 301.251 16.56 301.091 16.432C300.931 16.272 300.803 16.128 300.707 16H304.883Z" fill="#333333"/>
</svg>
