<svg xmlns="http://www.w3.org/2000/svg" viewBox="0 0 260.14 190.17"><defs><style>.cls-1{font-size:47px;fill:#333;font-family:Glitten-Regular, Glitten;}.cls-2{letter-spacing:0.01em;}.cls-3{letter-spacing:-0.02em;}.cls-4{letter-spacing:-0.05em;}.cls-5{letter-spacing:-0.02em;}.cls-6{letter-spacing:-0.03em;}.cls-7{letter-spacing:0em;}.cls-8{fill:#991554;}.cls-9{fill:#ffccdf;}.cls-10{fill:#e35991;}.cls-11{fill:#f792ba;}.cls-12{fill:#bf3272;}</style></defs><g id="Layer_2" data-name="Layer 2"><g id="BG"><text class="cls-1" transform="translate(0 132.24)">s<tspan class="cls-2" x="21.1" y="0">o</tspan><tspan class="cls-3" x="48.27" y="0">c</tspan><tspan x="69.89" y="0">ial </tspan><tspan x="0" y="46">b</tspan><tspan class="cls-4" x="27.26" y="46">utter</tspan><tspan class="cls-5" x="79.57" y="46">f</tspan><tspan class="cls-6" x="122.01" y="46">l</tspan><tspan class="cls-7" x="145.46" y="46">y</tspan></text></g><g id="graphics"><path class="cls-8" d="M162,121.14c5.26-.42,13,2.62,25.63,19.64,9.76,13.13,12.27,17.54,10.57,19.06-2.34,2.09-5.57-3.09-17.45-18.23-9.46-12.05-16-10.29-20-12C155.87,127.48,157.44,121.5,162,121.14Z"/><path class="cls-8" d="M144.27,102.53c.27-.6.88-1.28,3.48-.69,3.76.85,7.48,3.88,10.7,10.09,2.87,5.57,3.24,7.35,2.76,7.61s-1.66-2.2-3.25-5.36c-1.92-3.81-4.71-7.42-10-8.6C144.52,104.82,143.84,103.45,144.27,102.53Z"/><path class="cls-8" d="M138.89,110.15c.07-.62.41-1.42,2.94-1.68,3.67-.37,8,1.25,12.76,5.91,4.3,4.17,5.18,5.67,4.82,6.05s-2.17-1.49-4.57-3.87c-2.9-2.87-6.53-5.29-11.68-4.76C139.81,112.15,138.78,111.12,138.89,110.15Z"/><path class="cls-9" d="M185.64,96.55c-1.32,13.56-.57,34.7,12.74,46.22s27.89,7,39.08,21.26,9.71,13.6,15.28,14.18,12-9.37,2.68-14.85-13.37-13-13.19-19.58-2.56-18.46-22.7-16.48-13.79-7-9.91-10.86a88.85,88.85,0,0,0,23.59-36.78c6.67-20.32-4.44-37.68-18.75-41.53-16.67-4.49-28.23-3.57-25.18-13.38C194.22,8.81,191.55-.87,182,.06,171.21,1.11,174.22,15.6,177.6,26,180.77,35.72,188.18,70.34,185.64,96.55Z"/><path class="cls-10" d="M239.72,158.58c-1.48-3.85-8.23-14.15-8.64-14.8-6.2-9.76-9.88-13.05-21.37-12.32-8.72.56-11.62-2.08-6.39-8.9,2-2.65,17.91-20.79,16.76-38.59-.7-7.67-3-14.3-8.69-18.44-15.46-11.3-24.94-3.51-25.92,4.26a151.72,151.72,0,0,1,.17,26.76c-1.32,13.56-.57,34.7,12.74,46.22,12.41,10.73,25.9,7.56,36.75,18.6C238.07,164.37,241.15,162.31,239.72,158.58Z"/><path class="cls-11" d="M245,158.51c-3.36-6.54-9-19.92-16.74-26-3.28-2.58-8.46-3.2-13.65-3.16-7.34.06-10.46-.54-11.29-2.47-2.05-4.72,12.11-14.85,20.76-33.8.58-1.29,1.06-2.64,1.54-4,5.93-16.85-5-34.89-15.95-40.52-14.64-7.51-27.26-3.79-25.42,10.16.43,3.23.94,8.44,1.2,11.19.89-7.81,10.39-15.74,25.93-4.38,9.45,6.91,15.6,27-5.57,53.85a0,0,0,0,1,0,0c-2.07,2.67-6.33,7.24-4.76,10,1.25,2.08,5.31,2.18,7.73,2.08,12.11-.46,14.54,1,22.3,12.27,1.1,1.56,4.06,6.31,6.25,10.15a37.13,37.13,0,0,1,2.39,4.65c1.18,3.41-.76,5.3-4.1,3.3C244.49,172.13,249.61,167.48,245,158.51Z"/><path class="cls-12" d="M204.8,133.55c-3.73.48-5.82-.74-6.39-2.34-.51-1.42.23-3.08.91-4.45,0,0,5.24-9.09,10.34-19.34,1.79-3.6,4.37-12.58.25-19.22-7-11.34-15.78-9.77-19.37-6.76-4.73,4-4.54,11-4.9,15.11-1.25,14.31-.57,34.7,12.74,46.22C208,151,218.17,151,227.32,155.68c5,1.9,1.91-5.71-.24-9.77C223.87,139.85,221,131.46,204.8,133.55Z"/><path class="cls-8" d="M220.67,146.16c-.1-4.38-6.08-10-10.69-10.46s-13,1.37-14-2.35,1.57-7.15,6.05-14.49,5.54-11.87,1.71-17.2c-5.49-7.64-13.46-5.59-15.15,3.2-1.12,5.85,0,17.75.37,20.91.86,6.44,3.38,11.76,8.71,15.77C204.16,146.44,220.78,151.06,220.67,146.16Z"/><path class="cls-9" d="M184.18,130.09c-4.28-10.66-5.2-22.3-5.23-30.15,0-15.68-2.41-36.88-13.06-44-4.56-3.08-9.55-1.21-13.95-.92-4.69.31-7.6-.8-8.73-5.7C139.67,33.85,133,26.4,125.65,30.45c-8.16,4.54,1.11,16,8.73,23.83,7.16,7.33,29.48,34.67,39.81,58.13A97.12,97.12,0,0,0,184.18,130.09Z"/><path class="cls-10" d="M152.48,76.46c7.94,10.85,16.4,23.91,21.71,36,.13.31.28.63.42.94-.49-2.29-2.57-10.39-4.72-17.8-3.18-10.94-6.95-17.82-13.64-19.08A8.66,8.66,0,0,0,152.48,76.46Z"/><path class="cls-11" d="M172.31,92.91c-2.16-15.34-7.66-27.47-16.47-30.3-6.21-2-10,.45-11.14,3.67,2.44,3,5.08,6.48,7.78,10.17h0a8.72,8.72,0,0,1,3.74,0c6.69,1.26,10.46,8.14,13.64,19.08,2.16,7.42,4.24,15.53,4.72,17.81a102.18,102.18,0,0,0,6.68,12.43.08.08,0,0,0,0-.05C176,116.51,173.67,102.52,172.31,92.91Z"/></g></g></svg>