<svg xmlns="http://www.w3.org/2000/svg" viewBox="0 0 746.96 546.06"><defs>
<style>.cls-1{font-size:134.95px;fill:#333;font-family:Glitten-Regular, Glitten;}.cls-2{letter-spacing:0.01em;}.cls-3{letter-spacing:-0.02em;}.cls-4{letter-spacing:0em;}.cls-5{letter-spacing:-0.05em;}.cls-6{letter-spacing:-0.03em;}.cls-7{fill:#991554;}.cls-8{fill:#ffccdf;}.cls-9{fill:#e35991;}.cls-10{fill:#f792ba;}.cls-11{fill:#bf3272;}</style>
</defs><g id="Layer_2" data-name="Layer 2"><g id="BG"><text class="cls-1" transform="translate(0 379.7)">s<tspan class="cls-2" x="60.59" y="0">o</tspan><tspan class="cls-3" x="138.6" y="0">c</tspan><tspan class="cls-4" x="200.68" y="0">ial </tspan><tspan x="0" y="132.08">b</tspan><tspan class="cls-5" x="78.27" y="132.08">utter</tspan><tspan class="cls-3" x="228.48" y="132.08">f</tspan><tspan class="cls-6" x="350.34" y="132.08">l</tspan><tspan x="417.68" y="132.08">y</tspan></text></g><g id="graphics"><path class="cls-7" d="M465.12,347.83c15.12-1.21,37.29,7.52,73.61,56.4,28,37.7,35.22,50.38,30.35,54.73-6.73,6-16-8.88-50.12-52.35-27.16-34.6-46.06-29.53-57.29-34.42C447.56,366,452.08,348.87,465.12,347.83Z"/><path class="cls-7" d="M414.25,294.39c.79-1.71,2.52-3.66,10-2,10.8,2.44,21.49,11.16,30.72,29,8.25,16,9.32,21.1,7.94,21.84s-4.76-6.3-9.33-15.38c-5.52-11-13.54-21.3-28.74-24.7C415,301,413,297.05,414.25,294.39Z"/><path class="cls-7" d="M398.8,316.29c.19-1.79,1.17-4.09,8.45-4.83,10.53-1.07,22.87,3.59,36.65,17,12.33,12,14.86,16.29,13.83,17.38s-6.23-4.26-13.13-11.1c-8.34-8.26-18.74-15.2-33.55-13.66C401.46,322,398.49,319.08,398.8,316.29Z"/><path class="cls-8" d="M533,277.23c-3.78,38.94-1.64,99.63,36.58,132.7s80.09,20.14,112.2,61.07,27.9,39,43.88,40.71,34.52-26.91,7.69-42.64S695,431.88,695.54,412.85s-7.36-53-65.2-47.34-39.58-20-28.43-31.16,47.88-45.18,67.72-105.63c19.15-58.33-12.73-108.18-53.84-119.24-47.87-12.88-81-10.23-72.3-38.41C557.68,25.3,550-2.51,522.44.18c-30.82,3-22.2,44.62-12.5,74.43C519.05,102.57,540.33,202,533,277.23Z"/><path class="cls-9" d="M688.33,455.34c-4.26-11.06-23.63-40.63-24.82-42.5-17.8-28-28.37-37.46-61.36-35.36-25,1.6-33.35-6-18.35-25.57,5.71-7.6,51.45-59.69,48.14-110.79-2-22-8.7-41.08-25-53-44.39-32.43-71.6-10.07-74.39,12.25,2.2,26,2.81,52.65.47,76.83-3.78,38.94-1.64,99.63,36.58,132.7,35.62,30.82,74.37,21.72,105.52,53.44C683.59,472,692.44,466.05,688.33,455.34Z"/><path class="cls-10" d="M703.51,455.15c-9.64-18.8-25.9-57.21-48-74.59-9.44-7.41-24.31-9.18-39.21-9.06-21.08.16-30-1.56-32.43-7.08-5.87-13.56,34.78-42.64,59.62-97.08,1.68-3.68,3-7.58,4.42-11.54,17-48.41-14.26-100.21-45.78-116.37-42.06-21.57-78.29-10.88-73,29.19,1.23,9.25,2.69,24.23,3.44,32.13,2.55-22.44,29.82-45.19,74.43-12.6,27.17,19.86,44.8,77.6-16,154.65l0,.06c-5.92,7.65-18.16,20.78-13.64,28.79,3.57,6,15.23,6.26,22.19,6,34.77-1.32,41.75,2.85,64,35.22,3.16,4.5,11.68,18.13,18,29.15,1.86,3.23,5.65,9.86,6.87,13.35,3.39,9.79-2.2,15.23-11.77,9.47C702,494.26,716.72,480.91,703.51,455.15Z"/><path class="cls-11" d="M588.06,383.47c-10.73,1.37-16.72-2.12-18.36-6.73-1.44-4.07.68-8.82,2.61-12.77,0,0,15.06-26.09,29.71-55.54,5.13-10.32,12.53-36.11.71-55.16-20.2-32.58-45.3-28.07-55.61-19.44-13.58,11.4-13.06,31.64-14.08,43.4-3.59,41.09-1.64,99.63,36.58,132.7,27.47,23.76,56.82,23.77,83.09,37.09,14.38,5.45,5.51-16.4-.68-28.07C642.8,401.57,634.7,377.47,588.06,383.47Z"/><path class="cls-7" d="M633.62,419.68c-.27-12.56-17.45-28.71-30.7-30s-37.2,3.93-40.28-6.73,4.52-20.54,17.37-41.61,15.92-34.1,4.92-49.39c-15.77-21.94-38.66-16.05-43.5,9.19-3.23,16.79-.13,50.95,1.07,60,2.45,18.51,9.68,33.77,25,45.3C586.21,420.49,633.93,433.76,633.62,419.68Z"/><path class="cls-8" d="M528.86,373.53c-12.3-30.61-15-64-15-86.55-.12-45-6.93-105.91-37.51-126.5-13.09-8.83-27.43-3.46-40.05-2.63-13.47.89-21.83-2.31-25.06-16.38-10.19-44.28-29.48-65.67-50.44-54-23.41,13,3.19,46,25.08,68.41,20.54,21,84.63,99.55,114.29,166.92A278.36,278.36,0,0,0,528.86,373.53Z"/><path class="cls-9" d="M437.82,219.53c22.82,31.17,47.1,68.67,62.33,103.25.38.87.81,1.79,1.21,2.68-1.38-6.56-7.36-29.83-13.54-51.11-9.13-31.39-19.95-51.17-39.16-54.78A25.29,25.29,0,0,0,437.82,219.53Z"/><path class="cls-10" d="M494.78,266.77c-6.21-44-22-78.88-47.32-87-17.82-5.72-28.8,1.31-32,10.55,7,8.76,14.58,18.63,22.34,29.22l.08,0a25.5,25.5,0,0,1,10.76.06c19.21,3.61,30,23.39,39.16,54.78C494,295.66,500,319,501.37,325.49a289.89,289.89,0,0,0,19.19,35.71l.06-.14C505.27,334.54,498.66,294.36,494.78,266.77Z"/>
</g></g></svg>
