<svg xmlns="http://www.w3.org/2000/svg" data-name="Layer 2" viewBox="0 0 64 64"><path fill="#0ab4c1" d="M25.71,37.46A2.59472,2.59472,0,0,1,21.7,39.2l-.19-.11-2.83-1.88a4.18065,4.18065,0,0,1-1.77-4.3l.84-5.38a5.3088,5.3088,0,0,1,1.22-2.61,5.193,5.193,0,0,1,3.92-1.78H41.11a5.193,5.193,0,0,1,3.92,1.78,5.3088,5.3088,0,0,1,1.22,2.61l.84,5.38a4.18065,4.18065,0,0,1-1.77,4.3l-2.83,1.88-.19.11a2.6473,2.6473,0,0,1-1.44.45,2.59414,2.59414,0,0,1-2.57-2.19,1.84032,1.84032,0,0,1-.04-.41,2.59,2.59,0,0,1,1.17-2.17l.81-.54a2.29925,2.29925,0,0,0,.46-.42,2.14313,2.14313,0,0,0,.43-1.72l-.47-2.32v-.02l-.12-.6a1.17252,1.17252,0,0,0-1.12-.91,1.15233,1.15233,0,0,0-1.16,1.15V50.25a3.125,3.125,0,1,1-6.25,0,3.13,3.13,0,1,1-6.26,0v-7.3h.01V29.5a1.15233,1.15233,0,0,0-1.16-1.15,1.17252,1.17252,0,0,0-1.12.91l-.12.6v.01l-.47,2.33a2.14313,2.14313,0,0,0,.43,1.72,2.29925,2.29925,0,0,0,.46.42l.81.54a2.59,2.59,0,0,1,1.17,2.17A1.96254,1.96254,0,0,1,25.71,37.46Z"/><circle cx="47.6" cy="18.96" r="4.26" fill="#1636bf"/><path fill="#1636bf" d="M45.05,49.64a2.55852,2.55852,0,0,1-2.56-2.56V39.09l2.83-1.88a4.18065,4.18065,0,0,0,1.77-4.3l-.84-5.38a5.3088,5.3088,0,0,0-1.22-2.61H55.05a4.2633,4.2633,0,0,1,4.2,3.61l.68,4.38a3.42379,3.42379,0,0,1-1.44,3.52l-2.47,1.63a2.12729,2.12729,0,0,1-2.36-3.54l.67-.45a1.69493,1.69493,0,0,0,.72-1.74l-.47-2.39a.95749.95749,0,0,0-.92-.75.9326.9326,0,0,0-.94.94V47.08a2.55657,2.55657,0,0,1-5.11.13A2.56727,2.56727,0,0,1,45.05,49.64Z"/><path fill="#56b8f4" d="M7.98,38.06,5.51,36.43a3.42379,3.42379,0,0,1-1.44-3.52l.68-4.38a4.2633,4.2633,0,0,1,4.2-3.61H18.97a5.3088,5.3088,0,0,0-1.22,2.61l-.84,5.38a4.18065,4.18065,0,0,0,1.77,4.3l2.83,1.88v7.99a2.55657,2.55657,0,0,1-5.11.13,2.56169,2.56169,0,0,1-5.12-.13V30.13a.9326.9326,0,0,0-.94-.94.95749.95749,0,0,0-.92.75l-.47,2.39a1.69493,1.69493,0,0,0,.72,1.74l.67.45a2.12729,2.12729,0,0,1-2.36,3.54Z"/><path fill="#0ab4c1" d="M32,21.05a5.215,5.215,0,1,1,5.21-5.21A5.20668,5.20668,0,0,1,32,21.05Z"/><circle cx="16.4" cy="18.96" r="4.26" fill="#56b8f4"/><path fill="#064666" d="M32 22.0498a6.21436 6.21436 0 116.21387-6.21386A6.22036 6.22036 0 0132 22.0498zm0-10.42871a4.21436 4.21436 0 104.21387 4.21485A4.21923 4.21923 0 0032 11.62109zM35.13184 54.37891A4.13671 4.13671 0 0131 50.24609V36.69238h2V50.24609a2.12647 2.12647 0 104.25293 0V29.499a2.15158 2.15158 0 014.25293-.45507l.59277 2.96A3.08052 3.08052 0 0140.7959 35.166l-.82813.54492a1.5963 1.5963 0 00-.71484 1.334 1.54552 1.54552 0 00.01855.251 1.6129 1.6129 0 002.48731 1.07031l.18555-.11914 2.82031-1.874a3.168 3.168 0 001.34765-3.26856l-.85156-5.417a4.25836 4.25836 0 00-.98633-2.10937 4.20844 4.20844 0 00-3.167-1.43946H22.89258A4.20942 4.20942 0 0019.72266 25.582a4.25767 4.25767 0 00-.98438 2.10938l-.84277 5.37207A3.1851 3.1851 0 0019.23633 36.374l3.001 1.99024a1.57614 1.57614 0 001.542.14844 1.59222 1.59222 0 00.94824-1.208 1.74952 1.74952 0 00.01953-.25977A1.5979 1.5979 0 0024.0293 35.709l-.80957-.53222a3.08135 3.08135 0 01-1.32032-3.15918l.58887-2.94629a2.17935 2.17935 0 012.10449-1.7168 2.152 2.152 0 012.1543 2.14453V42.94531h-2V40.26758c-.05469.02734-.11035.05371-.167.07812a3.58305 3.58305 0 01-3.44043-.31054l-3.01172-1.9961a5.1624 5.1624 0 01-2.20117-5.32715l.83594-5.335a6.21013 6.21013 0 016.12988-5.23828H41.10742a6.20807 6.20807 0 016.12891 5.23438l.84472 5.37988a5.14614 5.14614 0 01-2.208 5.28516L42.84668 40.044a3.65589 3.65589 0 01-3.59375.22656v9.97558A4.1313 4.1313 0 0135.13184 54.37891zM24.35254 29.959l-.01953.11231-.47071 2.33008a1.07606 1.07606 0 00.47266 1.11426l.41211.27148V29.499c0-.18261-.26758-.168-.30176-.01562zm15.05469-.60449a.14216.14216 0 00-.1543.14453v4.28809l.42773-.28223a1.0922 1.0922 0 00.22852-.20508 1.14433 1.14433 0 00.22656-.91113l-.58789-2.93652A.16535.16535 0 0039.40723 29.35449z"/><rect width="2" height="6.81" x="24.743" y="42.95" fill="#064666"/><path fill="#064666" d="M28.87109 54.37891A4.13316 4.13316 0 0124.74316 50.25V42.9502h2V50.25A2.12842 2.12842 0 1031 50.25V36.69238h2V50.25A4.134 4.134 0 0128.87109 54.37891zM16.39648 24.22363a5.26025 5.26025 0 115.26075-5.26074A5.26636 5.26636 0 0116.39648 24.22363zm0-8.5205a3.26025 3.26025 0 103.26075 3.25976A3.26292 3.26292 0 0016.39648 15.70313z"/><polygon fill="#064666" points="26.27 38.294 25.16 36.63 26.302 38.272 26.27 38.294"/><path fill="#064666" d="M18.94824,50.6377A3.55906,3.55906,0,0,1,15.39355,47.082V38.14648h2V47.082a1.56007,1.56007,0,0,0,3.12012,0V39.08691h2V47.082A3.56448,3.56448,0,0,1,18.94824,50.6377Z"/><polygon fill="#064666" points="22.353 29.873 22.353 29.862 24.353 29.862 22.353 29.873"/><path fill="#064666" d="M12.28418,41.11816h-2V39.207a3.11907,3.11907,0,0,1-2.85742-.31445L4.96,37.25977A4.40487,4.40487,0,0,1,3.08984,32.707l.67481-4.335A5.24406,5.24406,0,0,1,8.9541,23.92383H18.96973v2H8.9541a3.25073,3.25073,0,0,0-3.21387,2.76074L5.05762,33.0625a2.42863,2.42863,0,0,0,1.01269,2.53418L8.5332,37.22656a1.12522,1.12522,0,0,0,1.751-.92968,1.13321,1.13321,0,0,0-.499-.94434l-.66993-.44727a2.7004,2.7004,0,0,1-1.14062-2.77539l.46875-2.38672a1.9627,1.9627,0,0,1,1.90039-1.55468,1.94217,1.94217,0,0,1,1.94043,1.94043Zm-2-10.36914-.34863,1.77539a.68789.68789,0,0,0,.28515.71387l.06348.043Z"/><rect width="2" height="5.563" x="10.284" y="41.116" fill="#064666"/><path fill="#064666" d="M13.84082 50.63672a3.56092 3.56092 0 01-3.55664-3.55664V41.11621h2v5.96387a1.55615 1.55615 0 103.1123 0V38.1416h2v8.93848A3.56008 3.56008 0 0113.84082 50.63672zM47.60352 24.22363a5.26025 5.26025 0 115.25976-5.26074A5.26721 5.26721 0 0147.60352 24.22363zm0-8.5205a3.26025 3.26025 0 103.25976 3.25976A3.26376 3.26376 0 0047.60352 15.70313z"/><polygon fill="#064666" points="37.73 38.294 37.698 38.272 38.808 36.608 37.73 38.294"/><path fill="#064666" d="M45.05176,50.6377A3.56448,3.56448,0,0,1,41.48633,47.082V39.08691h2V47.082a1.56007,1.56007,0,0,0,3.12012,0V38.14648h2V47.082A3.55906,3.55906,0,0,1,45.05176,50.6377Z"/><polygon fill="#064666" points="41.647 29.873 39.647 29.873 41.647 29.862 41.647 29.873"/><path fill="#064666" d="M53.71582,41.11816h-2V30.12891a1.93937,1.93937,0,0,1,3.83594-.40625l.47558,2.415a2.6987,2.6987,0,0,1-1.14648,2.76953l-.66992.44726a1.1333,1.1333,0,0,0-.49512.94239,1.12523,1.12523,0,0,0,1.748.93164l2.47265-1.63672a2.40621,2.40621,0,0,0,1.01465-2.48242l-.69238-4.42872a3.249,3.249,0,0,0-3.21289-2.75683H45.03027v-2H55.0459a5.24238,5.24238,0,0,1,5.18848,4.44433l.68457,4.38575a4.38351,4.38351,0,0,1-1.87207,4.501l-2.47657,1.63965a3.11169,3.11169,0,0,1-2.85449.3125Zm0-10.36914v2.53223l.05957-.04a.68812.68812,0,0,0,.291-.709Z"/><rect width="2" height="5.563" x="51.716" y="41.116" fill="#064666"/><path fill="#064666" d="M50.15918,50.63672a3.56008,3.56008,0,0,1-3.55566-3.55664V38.1416h2v8.93848a1.55615,1.55615,0,1,0,3.1123,0V41.11621h2v5.96387A3.56092,3.56092,0,0,1,50.15918,50.63672Z"/></svg>