<svg xmlns="http://www.w3.org/2000/svg" data-name="Layer 2" viewBox="0 0 64 64"><rect width="36" height="4" x="14" y="48.537" fill="#ffbd49" rx="1"/><rect width="24" height="4" x="14" y="56.537" fill="#ffbd49" rx="1"/><path fill="#ffbd49" d="M21.20123,25.23608c.5177,1.2959,2.01221,2.00666,2.51129,3.30988.71541,1.835-.87841,4.04406.38526,5.73944a9.68,9.68,0,0,1,5.7392-2.19592V28.65094c-2.28705-.80774-4.10639-3.03864-3.789-6.70532a2.59085,2.59085,0,0,1-2.499-1.91907c7.37122.96783,4.79932-7.8056,11.525-5.8205a2.28123,2.28123,0,0,1,3.216,1.94025c.41717,2.05255-1.37665,3.47858-.32685,5.7782-.1054.01056-.21087.02112-.31628.02112.30951,3.59686-1.43329,5.81286-3.657,6.65893V32.0899a9.71922,9.71922,0,0,1,5.74188,2.19172c1.2587-1.69632-.33225-3.90118.38258-5.73566.49907-1.30322,1.99352-2.014,2.51128-3.30988.82434-2.16858-1.17889-4.19537-1.92474-6.1549.649-3.5376-.30738-9.58289-4.94782-9.15869a5.13607,5.13607,0,0,0-3.8396-1.9198c-5.59033-.07984-9.93359,5.49536-8.78735,11.07855C22.37952,21.03955,20.3764,23.06848,21.20123,25.23608Z"/><path fill="#42210b" d="M32,2.14842a21.99815,21.99815,0,1,0,22,22A21.99764,21.99764,0,0,0,32,2.14842Zm.7428,41.9909A20.00259,20.00259,0,0,1,21.74018,41.2996a8.67877,8.67877,0,0,1,7.39618-9.081,2.90427,2.90427,0,0,0,5.72675-.00007A8.67887,8.67887,0,0,1,42.25971,41.3,19.77522,19.77522,0,0,1,32.74275,44.13932ZM22.24824,24.95652c-.44754-1.35367.51664-2.63326,1.1665-3.86017a3.52939,3.52939,0,0,0,1.845,1.2967,6.79558,6.79558,0,0,0,3.83008,6.49749v1.311a10.55893,10.55893,0,0,0-4.28967,1.50518,6.48143,6.48143,0,0,0-.04621-3.43432C24.235,26.81771,22.7685,26.08717,22.24824,24.95652Zm1.82153-7.5581A8.09615,8.09615,0,0,1,32,9.14841,4.1932,4.1932,0,0,1,35.02582,10.653a1.01543,1.01543,0,0,0,.9549.3942,3.11032,3.11032,0,0,1,2.893,1.466,10.24215,10.24215,0,0,1,.90377,6.48838c-.0293.95815.73876,1.86938,1.11118,2.635,2.39311,3.9878-.08228,3.50212-1.64258,6.63555a6.46118,6.46118,0,0,0-.04638,3.43451,10.55948,10.55948,0,0,0-4.28961-1.50512V28.891a6.68426,6.68426,0,0,0,3.66412-4.59869.9919.9919,0,0,0,1.47042-1.32348A6.80282,6.80282,0,0,1,38.984,21.17161a3.54027,3.54027,0,0,1,.08178-2.80774c1.20494-2.5822-.50309-6.53919-3.89569-5.522-2.79111-.88113-5.17311.54551-6.31347,3.10949a4.30306,4.30306,0,0,1-4.6828,2.70948A8.50319,8.50319,0,0,1,24.06977,17.39842ZM31.3567,32.40086c-.45986-.31847-.20656-2.04528-.26691-2.911a6.23128,6.23128,0,0,0,1.82032-.00006v2.25866A.915.915,0,0,1,31.3567,32.40086ZM26.96681,20.84123a1.10094,1.10094,0,0,0-.76471-.30268,5.81756,5.81756,0,0,0,1.83874-.69116c2.99216-1.55618,2.64553-6.45635,6.84246-5.00685a1.00325,1.00325,0,0,0,.68611-.02672c1.2291-.54165,1.8908.62193,1.88943,1.72479-.20822,1.37731-1.09366,2.92612-.58359,4.53943-.215.29111-.11694,1.39317-.135,1.7403-.18891,6.26853-9.29077,6.26161-9.48049-.0001C27.23011,22.31954,27.41589,21.20845,26.96681,20.84123Zm17.25024,19.1239a10.58268,10.58268,0,0,0-2.97986-6.60474c.294-1.46061-.54023-2.96615-.124-4.37256.49016-1.1377,1.9508-1.85424,2.49428-3.2853.96769-2.42686-.88183-4.60907-1.81729-6.66331.613-3.95734-.57093-9.95-5.53271-10.01306C33.148,5.71633,27.66761,7.264,24.96671,10.16261a10.43515,10.43515,0,0,0-2.757,8.87655c-.913,2.01765-2.77156,4.17854-1.81725,6.66341.54214,1.42929,2.00523,2.14923,2.49417,3.28512.422,1.42644-.417,2.86636-.12388,4.3727a10.58268,10.58268,0,0,0-2.97986,6.60474C4.85746,28.37161,12.84192,4.28884,32.00014,4.14846,51.15965,4.28817,59.14115,28.37714,44.21705,39.96513Z"/><path fill="#42210b" d="M50 48.14842H14a1 1 0 0 0-1 1v4a1.00726 1.00726 0 0 0 1 1l36 0a1.00006 1.00006 0 0 0 1-1v-4A1.00723 1.00723 0 0 0 50 48.14842zm-35 2H49v2H15zM38 56.14842H14a1.00715 1.00715 0 0 0-1 1l0 4a1.00718 1.00718 0 0 0 1 1l24 0a1.00006 1.00006 0 0 0 1-1v-4A1.00717 1.00717 0 0 0 38 56.14842zm-23 2H37v2H15zM32.8177 46.13792l-.0011.00006z"/></svg>